<svg width="32" height="32" viewBox="0 0 32 32" fill="none" xmlns="http://www.w3.org/2000/svg">
<path d="M1 1H4.33333L5.16667 6M5.16667 6L7.66666 21H26L31 6H5.16667ZM11 29.3333C11 30.2538 10.2538 31 9.33333 31C8.41286 31 7.66666 30.2538 7.66666 29.3333C7.66666 28.4129 8.41286 27.6667 9.33333 27.6667C10.2538 27.6667 11 28.4129 11 29.3333ZM26 29.3333C26 30.2538 25.2538 31 24.3333 31C23.4129 31 22.6667 30.2538 22.6667 29.3333C22.6667 28.4129 23.4129 27.6667 24.3333 27.6667C25.2538 27.6667 26 28.4129 26 29.3333Z" stroke="#FCE429" stroke-width="2" stroke-linecap="round" stroke-linejoin="round"/>
</svg>
