<svg width="32" height="26" viewBox="0 0 32 26" fill="none" xmlns="http://www.w3.org/2000/svg">
<path d="M7.66667 7.66667L13.9167 12.6667C14.5079 13.14 15.2426 13.3979 16 13.3979C16.7574 13.3979 17.4921 13.14 18.0833 12.6667L24.3333 7.66667M31 21V4.33333C31 3.44928 30.6488 2.60143 30.0237 1.97631C29.3986 1.35119 28.5507 1 27.6667 1H4.33333C3.44928 1 2.60143 1.35119 1.97631 1.97631C1.35119 2.60143 1 3.44928 1 4.33333V21C1 21.8841 1.35119 22.7319 1.97631 23.357C2.60143 23.9821 3.44928 24.3333 4.33333 24.3333H27.6667C28.5507 24.3333 29.3986 23.9821 30.0237 23.357C30.6488 22.7319 31 21.8841 31 21Z" stroke="#FCE429" stroke-width="2" stroke-linecap="round" stroke-linejoin="round"/>
</svg>
