<svg width="32" height="32" viewBox="0 0 32 32" fill="none" xmlns="http://www.w3.org/2000/svg">
<path d="M11 26C11 28.7614 8.76142 31 6 31C3.23858 31 1 28.7614 1 26C1 23.2386 3.23858 21 6 21C8.76142 21 11 23.2386 11 26ZM11 26L11 12.6667M31 24.3333C31 27.0948 28.7614 29.3333 26 29.3333C23.2386 29.3333 21 27.0948 21 24.3333C21 21.5719 23.2386 19.3333 26 19.3333C28.7614 19.3333 31 21.5719 31 24.3333ZM31 24.3333L31 7.66667M11 12.6667V6L31 1V7.66667M11 12.6667L31 7.66667" stroke="white" stroke-width="2" stroke-linecap="round" stroke-linejoin="round"/>
</svg>
